[Header]
FileType HTR
DataType HTRS
FileVersion 1
NumSegments 64
NumFrames 3
DataFrameRate 30
EulerRotationOrder ZYX
CalibrationUnits mm
RotationUnits Degrees
GlobalAxisofGravity Y
BoneLengthAxis Y
ScaleFactor 1.0
[SegmentNames&Hierarchy]
Hips	GLOBAL
Spine	Hips
Spine1	Spine
Spine2	Spine1
Neck	Spine2
Head	Neck
LeftEye	Head
RightEye	Head
LeftShoulder	Spine2
LeftArm	LeftShoulder
LeftForeArm	LeftArm
LeftHand	LeftForeArm
LeftHandThumb1	LeftHand
LeftHandThumb2	LeftHandThumb1
LeftHandThumb3	LeftHandThumb2
LeftHandThumb4	LeftHandThumb3
LeftHandIndex1	LeftHand
LeftHandIndex2	LeftHandIndex1
LeftHandIndex3	LeftHandIndex2
LeftHandIndex4	LeftHandIndex3
LeftHandMiddle1	LeftHand
LeftHandMiddle2	LeftHandMiddle1
LeftHandMiddle3	LeftHandMiddle2
LeftHandMiddle4	LeftHandMiddle3
LeftHandRing1	LeftHand
LeftHandRing2	LeftHandRing1
LeftHandRing3	LeftHandRing2
LeftHandRing4	LeftHandRing3
LeftHandPinky1	LeftHand
LeftHandPinky2	LeftHandPinky1
LeftHandPinky3	LeftHandPinky2
LeftHandPinky4	LeftHandPinky3
RightShoulder	Spine2
RightArm	RightShoulder
RightForeArm	RightArm
RightHand	RightForeArm
RightHandPinky1	RightHand
RightHandPinky2	RightHandPinky1
RightHandPinky3	RightHandPinky2
RightHandPinky4	RightHandPinky3
RightHandRing1	RightHand
RightHandRing2	RightHandRing1
RightHandRing3	RightHandRing2
RightHandRing4	RightHandRing3
RightHandMiddle1	RightHand
RightHandMiddle2	RightHandMiddle1
RightHandMiddle3	RightHandMiddle2
RightHandMiddle4	RightHandMiddle3
RightHandIndex1	RightHand
RightHandIndex2	RightHandIndex1
RightHandIndex3	RightHandIndex2
RightHandIndex4	RightHandIndex3
RightHandThumb1	RightHand
RightHandThumb2	RightHandThumb1
RightHandThumb3	RightHandThumb2
RightHandThumb4	RightHandThumb3
LeftUpLeg	Hips
LeftLeg	LeftUpLeg
LeftFoot	LeftLeg
LeftToeBase	LeftFoot
RightUpLeg	Hips
RightLeg	RightUpLeg
RightFoot	RightLeg
RightToeBase	RightFoot
[BasePosition]
Hips	0	0	0	0	0	0	1
Spine	0	0	0	0	0	0	1
Spine1	0	0	0	0	0	0	1
Spine2	0	0	0	0	0	0	1
Neck	0	0	0	0	0	0	1
Head	0	0	0	0	0	0	1
LeftEye	0	0	0	0	0	0	1
RightEye	0	0	0	0	0	0	1
LeftShoulder	0	0	0	0	0	0	1
LeftArm	0	0	0	0	0	0	1
LeftForeArm	0	0	0	0	0	0	1
LeftHand	0	0	0	0	0	0	1
LeftHandThumb1	0	0	0	0	0	0	1
LeftHandThumb2	0	0	0	0	0	0	1
LeftHandThumb3	0	0	0	0	0	0	1
LeftHandThumb4	0	0	0	0	0	0	1
LeftHandIndex1	0	0	0	0	0	0	1
LeftHandIndex2	0	0	0	0	0	0	1
LeftHandIndex3	0	0	0	0	0	0	1
LeftHandIndex4	0	0	0	0	0	0	1
LeftHandMiddle1	0	0	0	0	0	0	1
LeftHandMiddle2	0	0	0	0	0	0	1
LeftHandMiddle3	0	0	0	0	0	0	1
LeftHandMiddle4	0	0	0	0	0	0	1
LeftHandRing1	0	0	0	0	0	0	1
LeftHandRing2	0	0	0	0	0	0	1
LeftHandRing3	0	0	0	0	0	0	1
LeftHandRing4	0	0	0	0	0	0	1
LeftHandPinky1	0	0	0	0	0	0	1
LeftHandPinky2	0	0	0	0	0	0	1
LeftHandPinky3	0	0	0	0	0	0	1
LeftHandPinky4	0	0	0	0	0	0	1
RightShoulder	0	0	0	0	0	0	1
RightArm	0	0	0	0	0	0	1
RightForeArm	0	0	0	0	0	0	1
RightHand	0	0	0	0	0	0	1
RightHandPinky1	0	0	0	0	0	0	1
RightHandPinky2	0	0	0	0	0	0	1
RightHandPinky3	0	0	0	0	0	0	1
RightHandPinky4	0	0	0	0	0	0	1
RightHandRing1	0	0	0	0	0	0	1
RightHandRing2	0	0	0	0	0	0	1
RightHandRing3	0	0	0	0	0	0	1
RightHandRing4	0	0	0	0	0	0	1
RightHandMiddle1	0	0	0	0	0	0	1
RightHandMiddle2	0	0	0	0	0	0	1
RightHandMiddle3	0	0	0	0	0	0	1
RightHandMiddle4	0	0	0	0	0	0	1
RightHandIndex1	0	0	0	0	0	0	1
RightHandIndex2	0	0	0	0	0	0	1
RightHandIndex3	0	0	0	0	0	0	1
RightHandIndex4	0	0	0	0	0	0	1
RightHandThumb1	0	0	0	0	0	0	1
RightHandThumb2	0	0	0	0	0	0	1
RightHandThumb3	0	0	0	0	0	0	1
RightHandThumb4	0	0	0	0	0	0	1
LeftUpLeg	0	0	0	0	0	0	1
LeftLeg	0	0	0	0	0	0	1
LeftFoot	0	0	0	0	0	0	1
LeftToeBase	0	0	0	0	0	0	1
RightUpLeg	0	0	0	0	0	0	1
RightLeg	0	0	0	0	0	0	1
RightFoot	0	0	0	0	0	0	1
RightToeBase	0	0	0	0	0	0	1
[Hips]
6	12.38822174	988.437439	281.3568115	4.122794628	-2.860622883	-3.593535423	1.0
7	15.61476898	974.430603	336.757782	4.129267216	-3.466217041	-3.535534143	1.0
8	20.04190254	964.7526855	398.4341736	3.338728189	-3.352000475	-2.822090626	1.0
[Spine]
6	0	101.8159943	1.315000057	3.871635199	3.730222702	4.664114475	1.0
7	0	101.8159943	1.315000057	3.860260487	4.065554142	3.91556859	1.0
8	0	101.8159943	1.315000057	3.959808588	4.306582928	2.498636007	1.0
[Spine1]
6	0	100.8349991	-10.00800037	1.979040742	0.9058086872	-1.865114927	1.0
7	0	100.8349991	-10.00800037	1.992452383	1.726801753	-1.714076996	1.0
8	0	100.8349991	-10.00800037	2.035001993	2.339617491	-1.60007906	1.0
[Spine2]
6	0	91	-13.73399925	1.899843931	0.8798287511	-1.847804546	1.0
7	0	91	-13.73399925	1.932099462	1.697603345	-1.723551989	1.0
8	0	91	-13.73399925	1.980322361	2.311944008	-1.637288094	1.0
[Neck]
6	0	166.7169952	-25.16200066	-0.5740104318	0.2644924223	1.157032847	1.0
7	0	166.7169952	-25.16200066	-0.745272398	-0.08763070405	1.068794608	1.0
8	0	166.7169952	-25.16200066	-0.7464724779	-0.3740401864	0.7696977258	1.0
[Head]
6	0	96.17900085	16.84999847	-4.658763885	0.9274908304	-2.499588013	1.0
7	0	96.17900085	16.84999847	-5.421478748	0.4667784572	-2.463387489	1.0
8	0	96.17900085	16.84999847	-5.860708237	-0.4063287973	-1.939046264	1.0
[LeftEye]
6	30.6760006	64.09500122	92.83599854	0	0	0	1.0
7	30.6760006	64.09500122	92.83599854	0	0	0	1.0
8	30.6760006	64.09500122	92.83599854	0	0	0	1.0
[RightEye]
6	-30.6760006	64.09500122	92.83499908	0	0	0	1.0
7	-30.6760006	64.09500122	92.83499908	0	0	0	1.0
8	-30.6760006	64.09500122	92.83499908	0	0	0	1.0
[LeftShoulder]
6	45.70400238	109.4599991	-26.28000069	1.724609375	-5.059807777	-13.13562584	1.0
7	45.70400238	109.4599991	-26.28000069	1.651446819	-4.65238905	-13.25978279	1.0
8	45.70400238	109.4599991	-26.28000069	1.746677637	-4.961850643	-13.67046833	1.0
[LeftArm]
6	105.923996	-5.24600029	-22.32099915	15.20199013	13.21421623	-66.5414505	1.0
7	105.923996	-5.24600029	-22.32099915	13.88930321	13.2699976	-66.73574829	1.0
8	105.923996	-5.24600029	-22.32099915	13.70640182	12.7131834	-65.944664	1.0
[LeftForeArm]
6	278.414978	-0.0009999999311	0	4.373487627e-06	-8.083958626	-0.0001947154378	1.0
7	278.414978	-0.0009999999311	0	1.841210974e-06	-5.746083736	-0.0002103439474	1.0
8	278.414978	-0.0009999999311	0	2.733638894e-06	-4.336285114	-0.0002174142865	1.0
[LeftHand]
6	283.2879944	0	0	2.003158331	-1.594077706	-17.12837029	1.0
7	283.2879944	0	0	3.907877207	-0.6879711151	-17.78113365	1.0
8	283.2879944	0	0	6.381988525	2.262415409	-16.29487991	1.0
[LeftHandThumb1]
6	24.6609993	-15.75	26.8239994	5.839803696	2.504242897	11.148386	1.0
7	24.6609993	-15.75	26.8239994	5.839803696	2.504242897	11.148386	1.0
8	24.6609993	-15.75	26.8239994	5.839803696	2.504242897	11.148386	1.0
[LeftHandThumb2]
6	32.29800034	-18.64699936	18.64699936	9.543112755	4.869262695	6.253239155	1.0
7	32.29800034	-18.64699936	18.64699936	9.520767212	5.177271366	6.020421505	1.0
8	32.29800034	-18.64699936	18.64699936	9.414165497	5.98140049	5.975392342	1.0
[LeftHandThumb3]
6	26.52600098	-15.31499958	15.31499958	-1.799328208	-10.1402998	21.01135445	1.0
7	26.52600098	-15.31499958	15.31499958	-2.130146027	-10.99473572	20.96857643	1.0
8	26.52600098	-15.31499958	15.31499958	-2.118650198	-10.95162106	21.02132797	1.0
[LeftHandThumb4]
6	19.54599953	-11.28499985	11.28499985	0	0	0	1.0
7	19.54599953	-11.28499985	11.28499985	0	0	0	1.0
8	19.54599953	-11.28499985	11.28499985	0	0	0	1.0
[LeftHandIndex1]
6	91.09299469	-5.170999527	22.60099792	-0.9312672019	-2.919865847	-21.07942963	1.0
7	91.09299469	-5.170999527	22.60099792	-0.9232922196	-1.846348286	-22.64073372	1.0
8	91.09299469	-5.170999527	22.60099792	-0.9029133916	-1.500990629	-22.94831657	1.0
[LeftHandIndex2]
6	36.76399994	0	0	-0.2046178579	1.532843947	-15.20626545	1.0
7	36.76399994	0	0	-0.2046950459	1.533110619	-15.20905781	1.0
8	36.76399994	0	0	-0.2043563575	1.531871676	-15.19640446	1.0
[LeftHandIndex3]
6	28.83100128	0	0	-0.2046250552	1.532852769	-15.2062664	1.0
7	28.83100128	0	0	-0.2046981901	1.533119798	-15.20905495	1.0
8	28.83100128	0	0	-0.204361394	1.531877637	-15.1964035	1.0
[LeftHandIndex4]
6	23.92700005	0	0	0	0	0	1.0
7	23.92700005	0	0	0	0	0	1.0
8	23.92700005	0	0	0	0	0	1.0
[LeftHandMiddle1]
6	95.33399963	0	0	-1.816698074	4.948904037	-28.98361778	1.0
7	95.33399963	0	0	-1.909422398	5.227396965	-30.05600929	1.0
8	95.33399963	0	0	-1.922861218	5.109546661	-30.20978165	1.0
[LeftHandMiddle2]
6	36.98199844	0	0	-0.1261955351	1.207949519	-11.92793083	1.0
7	36.98199844	0	0	-0.1261204481	1.207589269	-11.92441463	1.0
8	36.98199844	0	0	-0.1253935546	1.204138398	-11.88976002	1.0
[LeftHandMiddle3]
6	29.50900078	0	0	-0.1716107726	1.405786276	-13.91864681	1.0
7	29.50900078	0	0	-0.1715163738	1.405439615	-13.91509724	1.0
8	29.50900078	0	0	-0.1706636995	1.402004838	-13.8804493	1.0
[LeftHandMiddle4]
6	28.3390007	0	0	0	0	0	1.0
7	28.3390007	0	0	0	0	0	1.0
8	28.3390007	0	0	0	0	0	1.0
[LeftHandRing1]
6	91.04499817	-0.4390000105	-18.65100098	-1.906597853	7.298385143	-30.0589695	1.0
7	91.04499817	-0.4390000105	-18.65100098	-2.003798008	7.352684021	-31.16613579	1.0
8	91.04499817	-0.4390000105	-18.65100098	-2.025502205	7.290583134	-31.4087677	1.0
[LeftHandRing2]
6	31.54000092	0	0	-0.3299269378	1.935559392	-19.34497261	1.0
7	31.54000092	0	0	-0.3274909258	1.928618431	-19.27264786	1.0
8	31.54000092	0	0	-0.3262788057	1.92516315	-19.23679161	1.0
[LeftHandRing3]
6	29.37700081	0	0	-0.4003505409	2.125439405	-21.3323307	1.0
7	29.37700081	0	0	-0.3976756036	2.118582964	-21.26007652	1.0
8	29.37700081	0	0	-0.3963646889	2.115203142	-21.22452354	1.0
[LeftHandRing4]
6	26.47500038	0	0	0	0	0	1.0
7	26.47500038	0	0	0	0	0	1.0
8	26.47500038	0	0	0	0	0	1.0
[LeftHandPinky1]
6	80.77799988	-4.887000084	-38.06099701	-2.666202068	8.855821609	-35.1035881	1.0
7	80.77799988	-4.887000084	-38.06099701	-2.668809652	8.521362305	-35.45360947	1.0
8	80.77799988	-4.887000084	-38.06099701	-2.64282012	8.137075424	-35.52634048	1.0
[LeftHandPinky2]
6	36	0	0	-0.2747172415	1.770580292	-17.63791656	1.0
7	36	0	0	-0.2719629109	1.761894941	-17.5485611	1.0
8	36	0	0	-0.2711115181	1.759201646	-17.52083969	1.0
[LeftHandPinky3]
6	21.14200211	0	0	-0.2747199833	1.770587206	-17.6378994	1.0
7	21.14200211	0	0	-0.271971494	1.761907935	-17.54854584	1.0
8	21.14200211	0	0	-0.2711159587	1.759213686	-17.52083397	1.0
[LeftHandPinky4]
6	19.75699997	0	0	0	0	0	1.0
7	19.75699997	0	0	0	0	0	1.0
8	19.75699997	0	0	0	0	0	1.0
[RightShoulder]
6	-45.70000076	109.4620056	-26.28000069	2.208586931	7.074332237	13.95323849	1.0
7	-45.70000076	109.4620056	-26.28000069	2.305562496	7.701190472	13.62414742	1.0
8	-45.70000076	109.4620056	-26.28000069	2.25371623	7.626703262	13.25467968	1.0
[RightArm]
6	-105.9280014	-5.248000145	-22.32099915	24.84803772	27.05754089	41.73426819	1.0
7	-105.9280014	-5.248000145	-22.32099915	23.72549248	28.02850342	39.94092941	1.0
8	-105.9280014	-5.248000145	-22.32099915	23.03857994	27.33468819	40.18035126	1.0
[RightForeArm]
6	-278.414978	0	0	8.535790585e-06	34.67299652	2.080781269e-05	1.0
7	-278.414978	0	0	-1.907494834e-06	33.53963089	9.908364518e-06	1.0
8	-278.414978	0	0	-1.056046472e-06	31.73422813	1.189286741e-05	1.0
[RightHand]
6	-283.2879944	0	0.0009999999311	-0.07013849169	-2.200817585	9.804156303	1.0
7	-283.2879944	0	0.0009999999311	0.6585271358	-0.4931992888	7.571248055	1.0
8	-283.2879944	0	0.0009999999311	1.511327744	1.696949244	4.992333889	1.0
[RightHandPinky1]
6	-80.76699829	-4.885000229	-38.06000137	-2.480614662	-0.4029797912	31.17307854	1.0
7	-80.76699829	-4.885000229	-38.06000137	-2.491377354	-0.3287315667	31.15232086	1.0
8	-80.76699829	-4.885000229	-38.06000137	-2.328163147	-0.9836376309	30.52280807	1.0
[RightHandPinky2]
6	-36	0	0.0009999999311	-0.5700217485	-2.227660179	28.7229023	1.0
7	-36	0	0.0009999999311	-0.5688920021	-2.225610971	28.69401169	1.0
8	-36	0	0.0009999999311	-0.5775510669	-2.24130249	28.91566467	1.0
[RightHandPinky3]
6	-21.14200211	0	0	-0.1782203615	-1.27361536	15.93180847	1.0
7	-21.14200211	0	0	-0.1775347888	-1.271229267	15.9010973	1.0
8	-21.14200211	0	0	-0.1829061061	-1.289801836	16.13997841	1.0
[RightHandPinky4]
6	-19.75699997	0	0	0	0	0	1.0
7	-19.75699997	0	0	0	0	0	1.0
8	-19.75699997	0	0	0	0	0	1.0
[RightHandRing1]
6	-91.03599548	-0.4390000105	-18.65100098	-1.490094066	-1.50884223	26.94647408	1.0
7	-91.03599548	-0.4390000105	-18.65100098	-1.50178349	-1.490636349	27.10918045	1.0
8	-91.03599548	-0.4390000105	-18.65100098	-1.449110985	-1.739197254	26.36861992	1.0
[RightHandRing2]
6	-31.54000092	0	0	-1.503287911	-3.416696787	47.4875412	1.0
7	-31.54000092	0	0	-1.506266117	-3.41940546	47.53729248	1.0
8	-31.54000092	0	0	-1.506877542	-3.419967175	47.54759979	1.0
[RightHandRing3]
6	-29.37700081	0	0	-0.3749529421	-1.827023506	23.19347572	1.0
7	-29.37700081	0	0	-0.3765365183	-1.830712676	23.24299049	1.0
8	-29.37700081	0	0	-0.3769019246	-1.83157897	23.2546196	1.0
[RightHandRing4]
6	-26.47500038	0	0	0	0	0	1.0
7	-26.47500038	0	0	0	0	0	1.0
8	-26.47500038	0	0	0	0	0	1.0
[RightHandMiddle1]
6	-95.32500458	0	0	-1.292831898	0.160836488	24.25013542	1.0
7	-95.32500458	0	0	-1.291922927	0.1128364503	24.23523331	1.0
8	-95.32500458	0	0	-1.233897209	-0.004837105516	23.3886776	1.0
[RightHandMiddle2]
6	-36.98199844	0	0	-0.867652297	-2.700573206	35.6175766	1.0
7	-36.98199844	0	0	-0.8695785403	-2.703258276	35.65850449	1.0
8	-36.98199844	0	0	-0.8699621558	-2.703802347	35.66665268	1.0
[RightHandMiddle3]
6	-29.50900078	0	0	-0.3031381965	-1.651472569	20.82632446	1.0
7	-29.50900078	0	0	-0.3043194115	-1.654583097	20.86734009	1.0
8	-29.50900078	0	0	-0.3045631647	-1.655225396	20.87590408	1.0
[RightHandMiddle4]
6	-28.3390007	0	0.0009999999311	0	0	0	1.0
7	-28.3390007	0	0.0009999999311	0	0	0	1.0
8	-28.3390007	0	0.0009999999311	0	0	0	1.0
[RightHandIndex1]
6	-91.08300018	-5.167999744	22.60099792	-1.276278019	4.961210728	24.47390556	1.0
7	-91.08300018	-5.167999744	22.60099792	-1.287424207	4.993127346	24.63874435	1.0
8	-91.08300018	-5.167999744	22.60099792	-1.209787607	4.908281803	23.47214317	1.0
[RightHandIndex2]
6	-36.76399994	0	0	-0.3881213367	-1.857438087	23.60273743	1.0
7	-36.76399994	0	0	-0.3902536631	-1.862332106	23.6687336	1.0
8	-36.76399994	0	0	-0.3911702931	-1.864403725	23.69681931	1.0
[RightHandIndex3]
6	-28.83100128	0	0	-0.07535868138	-0.8328729272	10.33984184	1.0
7	-28.83100128	0	0	-0.07633123547	-0.8381194472	10.40577316	1.0
8	-28.83100128	0	0	-0.07673423737	-0.8403559327	10.43379307	1.0
[RightHandIndex4]
6	-23.92700005	0	0	0	0	0	1.0
7	-23.92700005	0	0	0	0	0	1.0
8	-23.92700005	0	0	0	0	0	1.0
[RightHandThumb1]
6	-24.64799881	-15.72700024	26.82600021	12.78110313	-2.167885065	-4.410644054	1.0
7	-24.64799881	-15.72700024	26.82600021	12.78110313	-2.167885065	-4.410644054	1.0
8	-24.64799881	-15.72700024	26.82600021	12.78110313	-2.167885065	-4.410644054	1.0
[RightHandThumb2]
6	-32.29800034	-18.64699936	18.64699936	8.078936577	-14.83373642	-9.134813309	1.0
7	-32.29800034	-18.64699936	18.64699936	8.288027763	-15.21415997	-9.087834358	1.0
8	-32.29800034	-18.64699936	18.64699936	8.247694016	-16.38881874	-9.332755089	1.0
[RightHandThumb3]
6	-26.52600098	-15.31399918	15.31399918	-15.58817196	-4.604942799	-11.322052	1.0
7	-26.52600098	-15.31399918	15.31399918	-15.59335613	-4.592649937	-11.32591724	1.0
8	-26.52600098	-15.31399918	15.31399918	-15.57353783	-4.639573097	-11.31113434	1.0
[RightHandThumb4]
6	-19.54599953	-11.28499985	11.28499985	0	0	0	1.0
7	-19.54599953	-11.28499985	11.28499985	0	0	0	1.0
8	-19.54599953	-11.28499985	11.28499985	0	0	0	1.0
[LeftUpLeg]
6	82.07800293	-67.51699829	-15.99599934	-40.56510544	5.335960388	1.109099865	1.0
7	82.07800293	-67.51699829	-15.99599934	-41.21045303	6.281380653	0.7153209448	1.0
8	82.07800293	-67.51699829	-15.99599934	-38.52875519	6.385362148	-0.2690635026	1.0
[LeftLeg]
6	0	-443.7049866	2.845999956	6.350345612	2.876882792	4.44653368	1.0
7	0	-443.7049866	2.845999956	7.121618271	1.414365411	3.402632952	1.0
8	0	-443.7049866	2.845999956	7.686035156	-1.477350473	2.000781059	1.0
[LeftFoot]
6	0	-444.2789917	-29.8219986	-8.051258087	0.08020991832	-5.476589203	1.0
7	0	-444.2789917	-29.8219986	-6.816035748	0.002612210345	-5.266843796	1.0
8	0	-444.2789917	-29.8219986	1.662812352	0.193775177	-3.516370058	1.0
[LeftToeBase]
6	0	-87.28699493	107.1060028	-8.101491928	-5.273673196e-07	2.522849172e-06	1.0
7	0	-87.28699493	107.1060028	-8.237801552	1.382982418e-06	-7.22783966e-08	1.0
8	0	-87.28699493	107.1060028	-9.544915199	1.38125597e-06	-9.078029848e-07	1.0
[RightUpLeg]
6	-82.07800293	-67.51699829	-15.99599934	3.568521738	-13.29458714	1.664158344	1.0
7	-82.07800293	-67.51699829	-15.99599934	7.303347588	-13.70524025	0.2827106416	1.0
8	-82.07800293	-67.51699829	-15.99599934	13.08183575	-14.54259872	-1.647729397	1.0
[RightLeg]
6	0	-443.7049866	2.861999989	15.98197842	2.34575963	-2.21235919	1.0
7	0	-443.7049866	2.861999989	15.79456043	1.634708285	-3.156803131	1.0
8	0	-443.7049866	2.861999989	13.23458099	2.288537502	-4.555446625	1.0
[RightFoot]
6	0	-444.2770081	-29.83799934	-22.06541824	11.36882496	-1.237640381	1.0
7	0	-444.2770081	-29.83799934	-23.31254959	13.50758648	-0.285038352	1.0
8	0	-444.2770081	-29.83799934	-19.80116081	13.77198982	1.550293326	1.0
[RightToeBase]
6	0	-87.28699493	107.1060028	-5.952967167	7.719234532e-07	6.613157097e-07	1.0
7	0	-87.28699493	107.1060028	-7.384364128	-0.008731894195	-0.03778421506	1.0
8	0	-87.28699493	107.1060028	-10.94320583	0.1008268967	0.4244632721	1.0
[EndOfFile]
